# xmcd CD database file
#
# Track frame offsets:
#	150
#	14688
#	27213
#	41355
#	55119
#	66653
#	76569
#	87941
#	98635
#	110798
#
# Disc length: 1620 seconds
#
# Revision: 1
# Processed by: cddbd v1.5.2PL0 Copyright (c) Steve Scherf et al.
# Submitted via: cdripper 1,0,33,916
#
DISCID=7806520a
DTITLE=Various Artist - Truckin' Country Classics: Rollin' Down The Highway
DYEAR=2008
DGENRE=Country
TTITLE0=I'm The Only Hell (Momma Ever Raised) - Johnny Paycheck
TTITLE1=Roll Truck Roll - Rod Simpson
TTITLE2=I'm A Lonesome Fugitive - Merle Haggard
TTITLE3=Ramblin' Man - Hank Williams
TTITLE4=Me And Bobby McGee - Kenny Rogers and The First Edition
TTITLE5=Diesel Smoke - Dave Dudley
TTITLE6=Hot Rod Lincoln - Charlie Ryan
TTITLE7=I've Got A Tiger By The Tail - Waylon Jennings
TTITLE8=Headin' Down the Wrong Highway - Ted Daffan's Texans
TTITLE9=A Tombstone Every Mile - Dave Dudley
EXTD=YEAR: 2008
EXTT0=
EXTT1=
EXTT2=
EXTT3=
EXTT4=
EXTT5=
EXTT6=
EXTT7=
EXTT8=
EXTT9=
PLAYORDER=
